999
"DXF R12 Output" (www.mydxf.blogspot.com)
 0 
SECTION
 2 
HEADER
 9 
$ACADVER
 1 
AC1009
 9 
$EXTMIN
 10 
 0 
 20 
 0 
 9 
$EXTMAX
 10 
 8.5 
 20 
 11 
 0 
ENDSEC
 0 
SECTION
 2 
ENTITIES
0
LINE
8
Layer 1
10
215.545000
20
33.801100
11
212.439071
21
32.352668
0
LINE
8
Layer 1
10
212.439071
20
32.352668
11
209.735690
21
31.346860
0
LINE
8
Layer 1
10
209.735690
20
31.346860
11
204.836020
21
30.645018
0
LINE
8
Layer 1
10
204.836020
20
30.645018
11
199.455390
21
30.232010
0
LINE
8
Layer 1
10
199.455390
20
30.232010
11
197.758821
21
30.163472
0
LINE
8
Layer 1
10
197.758821
20
30.163472
11
196.616000
21
29.984850
0
LINE
8
Layer 1
10
196.616000
20
29.984850
11
196.118614
21
29.877288
0
LINE
8
Layer 1
10
196.118614
20
29.877288
11
196.104060
21
28.117348
0
LINE
8
Layer 1
10
196.104060
20
28.117348
11
196.092162
21
26.360358
0
LINE
8
Layer 1
10
196.092162
20
26.360358
11
194.185272
21
26.176118
0
LINE
8
Layer 1
10
194.185272
20
26.176118
11
192.119082
21
25.975099
0
LINE
8
Layer 1
10
192.119082
20
25.975099
11
191.956831
21
25.960976
0
LINE
8
Layer 1
10
191.956831
20
25.960976
11
189.469541
21
23.821336
0
LINE
8
Layer 1
10
189.469541
20
23.821336
11
183.909251
21
18.921236
0
LINE
8
Layer 1
10
183.909251
20
18.921236
11
181.076577
21
16.206732
0
LINE
8
Layer 1
10
181.076577
20
16.206732
11
178.164411
21
13.199316
0
LINE
8
Layer 1
10
178.164411
20
13.199316
11
175.013842
21
9.988667
0
LINE
8
Layer 1
10
175.013842
20
9.988667
11
173.568871
21
8.819076
0
LINE
8
Layer 1
10
173.568871
20
8.819076
11
172.548013
21
8.973485
0
LINE
8
Layer 1
10
172.548013
20
8.973485
11
171.059162
21
9.486696
0
LINE
8
Layer 1
10
171.059162
20
9.486696
11
169.683339
21
10.125439
0
LINE
8
Layer 1
10
169.683339
20
10.125439
11
169.001571
21
10.656446
0
LINE
8
Layer 1
10
169.001571
20
10.656446
11
169.877787
21
12.329466
0
LINE
8
Layer 1
10
169.877787
20
12.329466
11
175.430157
21
21.402286
0
LINE
8
Layer 1
10
175.430157
20
21.402286
11
177.402907
21
24.565966
0
LINE
8
Layer 1
10
177.402907
20
24.565966
11
178.670367
21
26.602326
0
LINE
8
Layer 1
10
178.670367
20
26.602326
11
179.470979
21
27.894816
0
LINE
8
Layer 1
10
179.470979
20
27.894816
11
177.922849
21
27.942952
0
LINE
8
Layer 1
10
177.922849
20
27.942952
11
176.364689
21
27.968080
0
LINE
8
Layer 1
10
176.364689
20
27.968080
11
176.030974
21
27.633040
0
LINE
8
Layer 1
10
176.030974
20
27.633040
11
170.857624
21
22.320450
0
LINE
8
Layer 1
10
170.857624
20
22.320450
11
166.012094
21
17.348210
0
LINE
8
Layer 1
10
166.012094
20
17.348210
11
165.289945
21
17.346897
0
LINE
8
Layer 1
10
165.289945
20
17.346897
11
163.939573
21
17.375187
0
LINE
8
Layer 1
10
163.939573
20
17.375187
11
163.495225
21
17.488897
0
LINE
8
Layer 1
10
163.495225
20
17.488897
11
163.414867
21
17.782215
0
LINE
8
Layer 1
10
163.414867
20
17.782215
11
163.677071
21
19.381257
0
LINE
8
Layer 1
10
163.677071
20
19.381257
11
164.979901
21
27.874477
0
LINE
8
Layer 1
10
164.979901
20
27.874477
11
165.030276
21
28.555426
0
LINE
8
Layer 1
10
165.030276
20
28.555426
11
164.914642
21
28.905207
0
LINE
8
Layer 1
10
164.914642
20
28.905207
11
164.590628
21
29.243013
0
LINE
8
Layer 1
10
164.590628
20
29.243013
11
163.970811
21
29.594823
0
LINE
8
Layer 1
10
163.970811
20
29.594823
11
163.535445
21
29.805252
0
LINE
8
Layer 1
10
163.535445
20
29.805252
11
163.498931
21
31.413572
0
LINE
8
Layer 1
10
163.498931
20
31.413572
11
163.463946
21
33.260842
0
LINE
8
Layer 1
10
163.463946
20
33.260842
11
163.462525
21
33.502444
0
LINE
8
Layer 1
10
163.462525
20
33.502444
11
163.087309
21
33.583947
0
LINE
8
Layer 1
10
163.087309
20
33.583947
11
160.615939
21
34.036139
0
LINE
8
Layer 1
10
160.615939
20
34.036139
11
158.749599
21
34.472265
0
LINE
8
Layer 1
10
158.749599
20
34.472265
11
158.754691
21
34.588759
0
LINE
8
Layer 1
10
158.754691
20
34.588759
11
159.054346
21
34.709889
0
LINE
8
Layer 1
10
159.054346
20
34.709889
11
160.677519
21
35.006070
0
LINE
8
Layer 1
10
160.677519
20
35.006070
11
163.475959
21
35.498381
0
LINE
8
Layer 1
10
163.475959
20
35.498381
11
163.490519
21
35.971256
0
LINE
8
Layer 1
10
163.490519
20
35.971256
11
163.556956
21
38.886096
0
LINE
8
Layer 1
10
163.556956
20
38.886096
11
163.710202
21
39.360267
0
LINE
8
Layer 1
10
163.710202
20
39.360267
11
164.332679
21
39.688310
0
LINE
8
Layer 1
10
164.332679
20
39.688310
11
165.055215
21
40.097823
0
LINE
8
Layer 1
10
165.055215
20
40.097823
11
165.156533
21
40.698190
0
LINE
8
Layer 1
10
165.156533
20
40.698190
11
163.900973
21
49.641850
0
LINE
8
Layer 1
10
163.900973
20
49.641850
11
163.680999
21
51.372640
0
LINE
8
Layer 1
10
163.680999
20
51.372640
11
163.832663
21
51.535149
0
LINE
8
Layer 1
10
163.832663
20
51.535149
11
165.415923
21
51.620933
0
LINE
8
Layer 1
10
165.415923
20
51.620933
11
166.112997
21
51.618122
0
LINE
8
Layer 1
10
166.112997
20
51.618122
11
166.281440
21
51.621329
0
LINE
8
Layer 1
10
166.281440
20
51.621329
11
169.012750
21
48.729469
0
LINE
8
Layer 1
10
169.012750
20
48.729469
11
173.398290
21
44.086439
0
LINE
8
Layer 1
10
173.398290
20
44.086439
11
175.757690
21
41.588179
0
LINE
8
Layer 1
10
175.757690
20
41.588179
11
176.459908
21
40.843748
0
LINE
8
Layer 1
10
176.459908
20
40.843748
11
176.634544
21
40.836039
0
LINE
8
Layer 1
10
176.634544
20
40.836039
11
179.554114
21
40.840105
0
LINE
8
Layer 1
10
179.554114
20
40.840105
11
176.233124
21
46.404465
0
LINE
8
Layer 1
10
176.233124
20
46.404465
11
169.428994
21
57.999565
0
LINE
8
Layer 1
10
169.428994
20
57.999565
11
169.333464
21
58.213753
0
LINE
8
Layer 1
10
169.333464
20
58.213753
11
169.489546
21
58.345581
0
LINE
8
Layer 1
10
169.489546
20
58.345581
11
171.079874
21
59.208050
0
LINE
8
Layer 1
10
171.079874
20
59.208050
11
173.128396
21
60.014441
0
LINE
8
Layer 1
10
173.128396
20
60.014441
11
173.970808
21
60.087042
0
LINE
8
Layer 1
10
173.970808
20
60.087042
11
174.834526
21
59.471562
0
LINE
8
Layer 1
10
174.834526
20
59.471562
11
177.666696
21
56.478202
0
LINE
8
Layer 1
10
177.666696
20
56.478202
11
182.531496
21
51.323542
0
LINE
8
Layer 1
10
182.531496
20
51.323542
11
188.825686
21
45.490662
0
LINE
8
Layer 1
10
188.825686
20
45.490662
11
192.082676
21
42.595432
0
LINE
8
Layer 1
10
192.082676
20
42.595432
11
194.149066
21
42.363693
0
LINE
8
Layer 1
10
194.149066
20
42.363693
11
196.217516
21
42.092719
0
LINE
8
Layer 1
10
196.217516
20
42.092719
11
196.183708
21
38.662519
0
LINE
8
Layer 1
10
196.183708
20
38.662519
11
197.630588
21
38.347730
0
LINE
8
Layer 1
10
197.630588
20
38.347730
11
199.928868
21
38.195588
0
LINE
8
Layer 1
10
199.928868
20
38.195588
11
204.870415
21
37.722857
0
LINE
8
Layer 1
10
204.870415
20
37.722857
11
209.712108
21
36.943498
0
LINE
8
Layer 1
10
209.712108
20
36.943498
11
212.186618
21
36.002498
0
LINE
8
Layer 1
10
212.186618
20
36.002498
11
215.925568
21
34.152628
0
LINE
8
Layer 1
10
215.925568
20
34.152628
11
215.926095
21
34.035330
0
LINE
8
Layer 1
10
215.926095
20
34.035330
11
215.544945
21
33.801079
0
LINE
8
Layer 1
10
215.544945
20
33.801079
11
215.545000
21
33.801100
0
LINE
8
Layer 1
10
11.906200
20
70.114300
11
15.875000
21
70.114300
0
LINE
8
Layer 1
10
15.875000
20
70.114300
11
15.875000
21
74.083000
0
LINE
8
Layer 1
10
15.875000
20
74.083000
11
21.166600
21
74.083000
0
LINE
8
Layer 1
10
21.166600
20
74.083000
11
21.166600
21
70.114300
0
LINE
8
Layer 1
10
21.166600
20
70.114300
11
25.135400
21
70.114300
0
LINE
8
Layer 1
10
25.135400
20
70.114300
11
25.135400
21
64.822600
0
LINE
8
Layer 1
10
25.135400
20
64.822600
11
21.166600
21
64.822600
0
LINE
8
Layer 1
10
21.166600
20
64.822600
11
21.166600
21
60.853900
0
LINE
8
Layer 1
10
21.166600
20
60.853900
11
15.875000
21
60.853900
0
LINE
8
Layer 1
10
15.875000
20
60.853900
11
15.875000
21
64.822600
0
LINE
8
Layer 1
10
15.875000
20
64.822600
11
11.906200
21
64.822600
0
LINE
8
Layer 1
10
11.906200
20
64.822600
11
11.906200
21
70.114300
 0 
ENDSEC
 0 
EOF