<?xml version="1.0" standalone="no"?>
<!DOCTYPE svg PUBLIC "-//W3C//DTD SVG 20010904//EN"
 "http://www.w3.org/TR/2001/REC-SVG-20010904/DTD/svg10.dtd">
<svg version="1.0" xmlns="http://www.w3.org/2000/svg"
 width="2656.000000pt" height="1406.000000pt" viewBox="0 0 2656.000000 1406.000000"
 preserveAspectRatio="xMidYMid meet">

<g transform="translate(0.000000,1406.000000) scale(0.100000,-0.100000)"
fill="#000000" stroke="none">
<path d="M2845 10458 c-12 -32 -231 -1079 -227 -1083 8 -8 120 -6 126 3 2 4
46 204 98 445 55 258 96 431 100 420 3 -10 30 -209 60 -443 l53 -425 73 0 73
0 247 447 c136 246 247 446 248 445 1 -1 -40 -200 -92 -442 -52 -242 -94 -443
-94 -447 0 -5 29 -8 64 -8 53 0 66 3 70 18 9 31 226 1060 226 1072 0 7 -32 10
-97 8 l-97 -3 -255 -462 c-140 -255 -258 -460 -261 -455 -4 4 -26 160 -49 347
-24 187 -50 393 -59 458 l-15 117 -94 0 c-66 0 -95 -4 -98 -12z"/>
<path d="M4071 10413 c-7 -32 -15 -68 -18 -81 -5 -22 -4 -23 58 -20 l63 3 17
72 c9 40 14 75 11 78 -3 3 -31 5 -62 5 l-57 0 -12 -57z"/>
<path d="M6506 10447 c-11 -45 -226 -1060 -226 -1068 0 -5 31 -9 69 -9 l68 0
31 143 c17 78 41 190 53 250 l22 107 279 0 c181 0 278 -4 278 -10 0 -6 -22
-115 -50 -243 -27 -127 -50 -235 -50 -239 0 -5 -103 -8 -230 -8 l-230 0 0
-1090 0 -1090 285 0 285 0 0 460 0 460 450 0 450 0 0 215 0 215 -450 0 -450 0
0 205 0 205 480 0 481 0 -2 250 -1 250 -29 0 c-53 0 -52 16 8 302 38 180 54
274 49 293 -12 48 -75 101 -141 120 -64 19 -206 17 -277 -5 -90 -26 -178 -116
-194 -197 l-6 -33 60 0 c59 0 60 0 79 38 38 73 140 112 239 92 70 -15 104 -47
104 -99 0 -101 -26 -117 -219 -142 -173 -22 -241 -44 -304 -99 -61 -54 -87
-110 -87 -189 0 -67 9 -91 48 -133 l26 -28 -142 0 c-78 0 -142 2 -142 5 0 2
52 248 115 545 63 298 115 543 115 546 0 2 -31 4 -70 4 -38 0 -70 -1 -70 -3 0
-1 -22 -107 -50 -236 -27 -129 -50 -235 -50 -237 0 -2 -126 -4 -281 -4 l-281
0 5 23 c7 27 97 449 97 454 0 1 -31 3 -69 3 -63 0 -69 -2 -75 -23z m1380 -774
c-18 -87 -34 -113 -95 -160 -100 -77 -283 -85 -321 -14 -17 33 -11 86 13 122
34 50 90 77 203 94 54 9 124 22 154 29 30 7 57 12 58 10 2 -1 -3 -38 -12 -81z
m-27 -295 c1 -5 -29 -8 -66 -8 l-67 0 46 29 c25 16 49 35 54 42 5 9 11 2 20
-22 7 -18 13 -37 13 -41z"/>
<path d="M9387 10403 c-8 -38 -28 -130 -44 -205 -15 -76 -31 -138 -35 -138 -3
0 -16 16 -28 34 -38 62 -82 81 -185 81 -77 0 -98 -4 -147 -27 -104 -49 -169
-115 -223 -227 -64 -131 -81 -325 -40 -433 6 -15 -2 -17 -62 -20 l-68 -3 -3
-1137 -2 -1138 265 0 265 0 0 1094 0 1094 35 22 c19 12 44 33 55 48 l21 26 -7
-52 -7 -53 59 3 59 3 112 525 c62 289 112 535 113 548 0 20 -4 22 -59 22 l-59
0 -15 -67z m-244 -347 c78 -28 117 -92 117 -191 0 -155 -83 -330 -181 -381
-40 -20 -187 -19 -217 2 -58 40 -81 147 -58 266 33 170 121 285 236 309 51 10
61 10 103 -5z"/>
<path d="M4539 10166 c-198 -57 -319 -237 -335 -501 -5 -76 -3 -98 15 -145 43
-115 117 -170 236 -178 135 -9 270 48 334 141 25 37 71 135 71 152 0 3 -29 5
-64 5 -61 0 -64 -1 -76 -29 -46 -111 -154 -174 -260 -150 -120 27 -162 173
-102 349 60 174 145 253 271 253 95 0 144 -37 157 -120 l7 -43 58 0 c57 0 59
1 61 28 5 100 -41 185 -127 230 -40 21 -185 26 -246 8z"/>
<path d="M5343 10160 c-24 -10 -66 -40 -94 -67 l-52 -48 7 40 c4 22 9 48 12
58 5 15 -2 17 -53 17 l-59 0 -78 -372 c-44 -205 -81 -383 -84 -396 -4 -22 -3
-23 59 -20 l64 3 46 215 c60 283 70 311 133 376 52 53 121 84 187 84 29 0 31
3 53 103 6 27 6 27 -46 27 -30 0 -71 -9 -95 -20z"/>
<path d="M5780 10166 c-163 -47 -269 -175 -320 -386 -40 -169 -21 -280 61
-362 60 -60 131 -83 234 -75 111 8 179 39 256 116 101 101 153 228 166 402 7
104 -10 166 -63 228 -54 63 -103 84 -204 87 -49 2 -104 -2 -130 -10z m145
-107 c88 -24 131 -103 122 -222 -15 -200 -124 -356 -264 -377 -90 -14 -152 16
-191 91 -21 38 -23 54 -19 124 12 196 116 358 247 384 62 12 60 12 105 0z"/>
<path d="M8572 10160 c-23 -10 -66 -42 -96 -70 l-54 -51 13 61 13 60 -59 0
c-33 0 -59 -3 -59 -7 0 -3 -36 -176 -80 -384 -44 -208 -80 -383 -80 -389 0 -6
25 -10 59 -10 48 0 61 3 65 18 3 9 26 113 51 231 51 238 69 288 123 344 48 50
98 75 166 83 60 7 62 9 72 84 l7 50 -49 0 c-27 0 -68 -9 -92 -20z"/>
<path d="M4015 10148 c-4 -11 -165 -768 -165 -775 0 -7 119 -2 124 5 4 6 166
764 166 777 0 12 -121 4 -125 -7z"/>
<path d="M9587 9463 c-4 -3 -7 -100 -7 -215 l0 -208 265 0 265 0 -2 213 -3
212 -256 3 c-140 1 -258 -1 -262 -5z"/>
<path d="M12767 9463 c-4 -3 -7 -516 -7 -1140 l0 -1133 265 0 265 0 0 448 c0
351 3 462 15 515 29 138 94 235 189 285 43 22 64 26 136 26 92 1 141 -17 187
-66 62 -66 72 -178 73 -785 l0 -423 260 0 261 0 -3 598 c-4 587 -4 598 -26
671 -34 111 -71 179 -134 247 -65 69 -145 116 -238 140 -87 22 -256 22 -339 0
-121 -33 -248 -111 -338 -209 l-43 -46 -2 437 -3 437 -256 3 c-140 1 -258 -1
-262 -5z"/>
<path d="M14950 9060 l0 -230 -130 0 -130 0 0 -190 0 -190 130 0 130 0 0 -382
c0 -409 8 -512 49 -619 45 -117 116 -183 250 -228 74 -25 84 -25 399 -29 l322
-3 0 184 0 185 -192 3 c-172 4 -197 6 -228 24 -69 41 -70 44 -70 478 l0 387
270 0 270 0 -2 188 -3 187 -267 3 -268 2 0 230 0 230 -265 0 -265 0 0 -230z"/>
<path d="M11030 8845 c-239 -66 -426 -268 -500 -541 -31 -114 -39 -356 -15
-479 36 -193 117 -347 242 -466 125 -118 257 -169 438 -169 193 0 317 51 453
186 l82 81 0 -91 c-1 -221 -69 -358 -212 -426 -84 -40 -178 -53 -328 -47 -146
6 -251 33 -397 102 l-93 44 0 -203 0 -203 73 -21 c188 -56 367 -77 577 -69 85
4 176 9 203 13 l47 7 0 -782 0 -781 165 0 165 0 1 848 0 847 58 41 c141 100
234 276 260 489 7 58 11 359 11 848 l0 757 -265 0 -265 0 0 -120 0 -120 -69
72 c-77 81 -148 128 -249 166 -86 32 -293 41 -382 17z m509 -394 c56 -29 125
-111 150 -178 58 -156 54 -374 -8 -509 -60 -129 -141 -185 -277 -192 -226 -12
-346 124 -361 408 -12 228 59 404 190 471 77 40 227 40 306 0z"/>
<path d="M9587 8823 c-4 -3 -7 -372 -7 -820 l0 -813 265 0 265 0 -2 818 -3
817 -256 3 c-140 1 -258 -1 -262 -5z"/>
<path d="M22270 8764 c-141 -61 -153 -258 -21 -332 41 -23 107 -31 152 -17 42
13 91 56 110 99 69 152 -89 316 -241 250z"/>
<path d="M1877 8743 c-4 -3 -7 -109 -7 -235 l0 -228 -230 0 -230 0 0 -315 0
-315 230 0 230 0 0 -230 0 -230 315 0 315 0 0 230 0 230 233 2 232 3 3 313 2
312 -235 0 -235 0 0 235 0 235 -308 0 c-170 0 -312 -3 -315 -7z"/>
<path d="M21635 8134 c-45 -23 -66 -45 -86 -89 -53 -115 21 -248 145 -262 112
-13 206 70 206 181 0 76 -37 138 -102 172 -36 19 -126 18 -163 -2z"/>
<path d="M22885 8134 c-45 -23 -66 -45 -86 -89 -53 -115 21 -248 145 -262 112
-13 206 70 206 181 0 76 -37 138 -102 172 -36 19 -126 18 -163 -2z"/>
<path d="M22270 7514 c-74 -32 -113 -90 -113 -170 0 -68 36 -131 93 -163 58
-33 152 -27 203 12 42 31 77 100 77 148 -1 129 -143 224 -260 173z"/>
<path d="M20395 7069 c-101 -34 -337 -145 -374 -176 l-24 -20 48 -89 c78 -145
302 -526 737 -1251 225 -376 411 -690 414 -698 5 -13 -17 -15 -174 -15 l-179
0 -604 640 -604 640 -90 -1 c-99 -1 -201 -11 -211 -22 -7 -6 3 -80 85 -642 80
-547 92 -655 78 -685 -8 -16 -37 -37 -85 -60 -41 -20 -79 -45 -85 -55 -8 -13
-13 -95 -15 -232 l-4 -212 -51 -10 c-29 -6 -137 -25 -242 -41 -212 -34 -265
-46 -265 -61 0 -16 43 -27 268 -69 119 -21 231 -42 248 -46 42 -8 44 -21 44
-255 l0 -189 69 -35 c76 -38 111 -77 111 -124 0 -51 -85 -619 -172 -1143 -18
-111 -20 -140 -10 -150 9 -9 58 -14 156 -16 l142 -3 609 625 609 626 178 0
c97 0 179 -4 182 -8 3 -5 -83 -150 -191 -323 -506 -813 -650 -1046 -823 -1334
-102 -170 -192 -325 -199 -343 -12 -29 -12 -35 5 -53 44 -49 365 -180 478
-195 43 -6 49 -4 103 37 32 23 164 151 293 283 708 726 919 926 1508 1433
l313 269 237 22 c130 13 240 22 245 22 4 0 7 94 7 208 l0 209 48 11 c53 13
218 27 502 42 413 21 969 91 1120 141 219 72 657 273 668 306 7 22 -500 261
-674 318 -175 57 -827 145 -1229 165 -189 10 -302 22 -382 42 l-43 10 0 204
c0 184 -2 203 -17 208 -10 3 -119 17 -243 31 -176 20 -229 30 -245 44 -883
781 -1151 1036 -1560 1486 -456 501 -523 565 -588 565 -18 0 -72 -14 -122 -31z"/>
<path d="M6241 6749 c-158 -20 -291 -80 -376 -170 -73 -76 -112 -161 -127
-272 -22 -164 17 -302 111 -390 91 -85 180 -118 496 -181 244 -49 320 -73 371
-118 42 -37 55 -60 65 -113 28 -150 -92 -259 -302 -272 -159 -10 -296 31 -363
109 -36 41 -66 113 -66 155 l0 23 -175 0 c-144 0 -175 -2 -175 -14 0 -8 7 -50
15 -93 52 -272 268 -439 599 -462 507 -35 811 173 810 554 0 190 -56 300 -199
389 -61 38 -160 67 -401 116 -271 56 -338 76 -391 116 -119 90 -60 281 101
329 98 29 278 15 362 -28 50 -26 110 -101 124 -154 6 -27 14 -54 16 -61 3 -10
41 -12 166 -10 l162 3 -3 53 c-12 229 -162 406 -396 467 -127 33 -287 42 -424
24z"/>
<path d="M7372 6583 l3 -148 165 0 165 0 3 148 3 147 -171 0 -171 0 3 -147z"/>
<path d="M17293 6717 c3 -7 120 -201 261 -430 l256 -416 -270 -430 c-149 -237
-270 -433 -270 -436 0 -3 91 -5 203 -5 l204 0 114 208 c62 114 137 249 165
299 l51 93 163 -296 c90 -163 168 -298 174 -300 7 -3 102 -3 213 -2 l201 3
-274 435 c-151 239 -274 438 -274 442 0 6 225 366 503 806 l27 42 -207 0 -208
0 -155 -280 c-85 -154 -158 -280 -161 -280 -3 0 -73 126 -155 280 l-149 280
-209 0 c-167 0 -207 -3 -203 -13z"/>
<path d="M13600 6430 l0 -169 -77 -3 -78 -3 0 -110 0 -110 78 -3 77 -3 0 -387
c0 -213 5 -418 10 -455 25 -170 122 -240 330 -239 53 0 116 5 138 12 l42 11 0
114 0 115 -65 0 c-57 0 -69 3 -90 25 l-25 24 0 391 0 390 90 0 90 0 0 115 0
115 -90 0 -90 0 0 170 0 170 -170 0 -170 0 0 -170z"/>
<path d="M8584 6291 c-60 -15 -124 -53 -179 -107 l-55 -54 0 75 0 75 -165 0
-165 0 0 -640 0 -640 165 0 164 0 3 433 c3 426 3 433 25 474 39 72 112 113
202 113 62 0 130 -35 156 -80 19 -34 20 -54 23 -487 l3 -453 164 0 165 0 0
408 c0 436 3 466 50 532 13 18 46 43 74 56 105 49 220 20 264 -66 22 -44 22
-48 22 -487 l0 -443 166 0 165 0 -3 513 -3 512 -31 65 c-73 152 -200 218 -405
208 -89 -4 -107 -9 -173 -42 -50 -24 -89 -53 -119 -86 -25 -28 -47 -50 -50
-50 -2 0 -16 18 -30 39 -34 51 -105 99 -179 123 -62 19 -192 23 -254 9z"/>
<path d="M12551 6285 c-188 -41 -304 -151 -346 -327 -25 -106 -38 -98 145 -98
l160 0 5 28 c21 103 81 142 220 141 49 0 105 -5 124 -12 78 -27 103 -128 47
-186 -37 -38 -52 -43 -261 -80 -93 -17 -196 -39 -227 -50 -154 -53 -239 -163
-254 -329 -21 -220 113 -396 319 -420 144 -18 279 24 400 122 57 47 57 47 57
21 0 -15 7 -42 16 -61 l16 -34 184 0 c175 0 184 1 184 19 0 11 -4 23 -10 26
-5 3 -22 27 -37 53 l-28 47 -5 440 -5 440 -28 56 c-52 107 -154 176 -302 204
-95 18 -288 18 -374 0z m386 -779 c-11 -195 -97 -290 -262 -290 -113 -1 -180
57 -178 155 1 65 28 109 83 136 25 12 110 36 189 52 79 17 146 32 149 35 19
20 24 -2 19 -88z"/>
<path d="M14722 6285 c-270 -61 -439 -283 -459 -605 -19 -310 100 -557 321
-665 104 -51 174 -66 306 -67 182 -1 321 46 437 147 258 226 270 784 23 1036
-65 66 -124 102 -223 136 -60 21 -95 26 -207 29 -93 3 -155 -1 -198 -11z m283
-274 c54 -24 129 -110 154 -175 78 -208 27 -471 -111 -572 -48 -36 -129 -57
-187 -49 -59 8 -142 54 -175 98 -138 180 -118 523 38 660 66 58 199 76 281 38z"/>
<path d="M16364 6286 c-83 -26 -160 -93 -218 -190 l-36 -60 0 122 0 122 -165
0 -165 0 0 -640 0 -640 164 0 165 0 3 388 3 387 26 56 c47 100 130 141 279
138 l85 -2 3 167 2 166 -52 -1 c-29 0 -71 -6 -94 -13z"/>
<path d="M7370 5640 l0 -640 170 0 170 0 0 640 0 640 -170 0 -170 0 0 -640z"/>
<path d="M10122 5778 c4 -490 4 -505 26 -570 57 -171 192 -258 398 -260 155
-1 259 43 349 146 l45 51 0 -72 0 -73 165 0 165 0 0 640 0 640 -165 0 -164 0
-3 -432 c-3 -392 -5 -437 -21 -473 -40 -89 -113 -136 -225 -143 -116 -7 -179
25 -219 113 -16 36 -18 82 -21 488 l-3 447 -165 0 -165 0 3 -502z"/>
</g>
</svg>
